<mxfile host="app.diagrams.net" modified="2023-05-12T10:12:11.163Z" agent="Mozilla/5.0 (Macintosh; Intel Mac OS X 10_15_7) AppleWebKit/537.36 (KHTML, like Gecko) Chrome/113.0.0.0 Safari/537.36" etag="0u1nvnixriUEiMr6XSHR" version="21.2.1" type="device">
  <diagram name="Page-1" id="uaxmd10gJDKHUTAYdKPr">
    <mxGraphModel dx="954" dy="616" grid="1" gridSize="10" guides="1" tooltips="1" connect="1" arrows="1" fold="1" page="1" pageScale="1" pageWidth="827" pageHeight="1169" math="0" shadow="0">
      <root>
        <mxCell id="0" />
        <mxCell id="1" parent="0" />
        <mxCell id="ZOca4I44WI3_u_HMunxy-15" style="edgeStyle=orthogonalEdgeStyle;rounded=0;orthogonalLoop=1;jettySize=auto;html=1;entryX=0.25;entryY=1;entryDx=0;entryDy=0;shadow=0;jumpStyle=arc;" edge="1" parent="1" source="ZOca4I44WI3_u_HMunxy-2" target="ZOca4I44WI3_u_HMunxy-10">
          <mxGeometry relative="1" as="geometry">
            <Array as="points">
              <mxPoint x="420" y="210" />
              <mxPoint x="390" y="210" />
            </Array>
          </mxGeometry>
        </mxCell>
        <mxCell id="ZOca4I44WI3_u_HMunxy-7" style="edgeStyle=orthogonalEdgeStyle;rounded=0;orthogonalLoop=1;jettySize=auto;html=1;entryX=0;entryY=0.5;entryDx=0;entryDy=0;entryPerimeter=0;" edge="1" parent="1" source="ZOca4I44WI3_u_HMunxy-1" target="ZOca4I44WI3_u_HMunxy-6">
          <mxGeometry relative="1" as="geometry" />
        </mxCell>
        <mxCell id="ZOca4I44WI3_u_HMunxy-11" style="edgeStyle=orthogonalEdgeStyle;rounded=0;orthogonalLoop=1;jettySize=auto;html=1;entryX=0.5;entryY=1;entryDx=0;entryDy=0;" edge="1" parent="1" source="ZOca4I44WI3_u_HMunxy-1" target="ZOca4I44WI3_u_HMunxy-10">
          <mxGeometry relative="1" as="geometry" />
        </mxCell>
        <mxCell id="ZOca4I44WI3_u_HMunxy-1" value="Post Service" style="rounded=0;whiteSpace=wrap;html=1;fillColor=#d5e8d4;strokeColor=#82b366;" vertex="1" parent="1">
          <mxGeometry x="360" y="154" width="120" height="40" as="geometry" />
        </mxCell>
        <mxCell id="ZOca4I44WI3_u_HMunxy-9" style="edgeStyle=orthogonalEdgeStyle;rounded=0;orthogonalLoop=1;jettySize=auto;html=1;entryX=0;entryY=0;entryDx=0;entryDy=52.5;entryPerimeter=0;" edge="1" parent="1" source="ZOca4I44WI3_u_HMunxy-2" target="ZOca4I44WI3_u_HMunxy-8">
          <mxGeometry relative="1" as="geometry" />
        </mxCell>
        <mxCell id="ZOca4I44WI3_u_HMunxy-2" value="Comment Service" style="rounded=0;whiteSpace=wrap;html=1;fillColor=#e1d5e7;strokeColor=#9673a6;" vertex="1" parent="1">
          <mxGeometry x="360" y="242" width="120" height="40" as="geometry" />
        </mxCell>
        <mxCell id="ZOca4I44WI3_u_HMunxy-4" style="edgeStyle=orthogonalEdgeStyle;rounded=0;orthogonalLoop=1;jettySize=auto;html=1;entryX=0;entryY=0.5;entryDx=0;entryDy=0;" edge="1" parent="1" source="ZOca4I44WI3_u_HMunxy-3" target="ZOca4I44WI3_u_HMunxy-1">
          <mxGeometry relative="1" as="geometry" />
        </mxCell>
        <mxCell id="ZOca4I44WI3_u_HMunxy-5" style="edgeStyle=orthogonalEdgeStyle;rounded=0;orthogonalLoop=1;jettySize=auto;html=1;entryX=0;entryY=0.5;entryDx=0;entryDy=0;" edge="1" parent="1" source="ZOca4I44WI3_u_HMunxy-3" target="ZOca4I44WI3_u_HMunxy-2">
          <mxGeometry relative="1" as="geometry" />
        </mxCell>
        <mxCell id="ZOca4I44WI3_u_HMunxy-12" style="edgeStyle=orthogonalEdgeStyle;rounded=0;orthogonalLoop=1;jettySize=auto;html=1;entryX=0;entryY=0.25;entryDx=0;entryDy=0;" edge="1" parent="1" source="ZOca4I44WI3_u_HMunxy-3" target="ZOca4I44WI3_u_HMunxy-10">
          <mxGeometry relative="1" as="geometry" />
        </mxCell>
        <mxCell id="ZOca4I44WI3_u_HMunxy-3" value="UI" style="image;aspect=fixed;html=1;points=[];align=center;fontSize=12;image=img/lib/azure2/general/Browser.svg;" vertex="1" parent="1">
          <mxGeometry x="180" y="148" width="65" height="52" as="geometry" />
        </mxCell>
        <mxCell id="ZOca4I44WI3_u_HMunxy-6" value="" style="shape=cylinder3;whiteSpace=wrap;html=1;boundedLbl=1;backgroundOutline=1;size=15;" vertex="1" parent="1">
          <mxGeometry x="600" y="148" width="60" height="80" as="geometry" />
        </mxCell>
        <mxCell id="ZOca4I44WI3_u_HMunxy-8" value="" style="shape=cylinder3;whiteSpace=wrap;html=1;boundedLbl=1;backgroundOutline=1;size=15;" vertex="1" parent="1">
          <mxGeometry x="600" y="250" width="60" height="80" as="geometry" />
        </mxCell>
        <mxCell id="ZOca4I44WI3_u_HMunxy-14" style="edgeStyle=orthogonalEdgeStyle;rounded=0;orthogonalLoop=1;jettySize=auto;html=1;entryX=0;entryY=0.5;entryDx=0;entryDy=0;entryPerimeter=0;" edge="1" parent="1" source="ZOca4I44WI3_u_HMunxy-10" target="ZOca4I44WI3_u_HMunxy-13">
          <mxGeometry relative="1" as="geometry" />
        </mxCell>
        <mxCell id="ZOca4I44WI3_u_HMunxy-10" value="Feed Service" style="rounded=0;whiteSpace=wrap;html=1;fillColor=#dae8fc;strokeColor=#6c8ebf;" vertex="1" parent="1">
          <mxGeometry x="360" y="70" width="120" height="40" as="geometry" />
        </mxCell>
        <mxCell id="ZOca4I44WI3_u_HMunxy-13" value="" style="shape=cylinder3;whiteSpace=wrap;html=1;boundedLbl=1;backgroundOutline=1;size=15;" vertex="1" parent="1">
          <mxGeometry x="600" y="50" width="60" height="80" as="geometry" />
        </mxCell>
        <mxCell id="ZOca4I44WI3_u_HMunxy-16" value="" style="rounded=0;whiteSpace=wrap;html=1;" vertex="1" parent="1">
          <mxGeometry x="10" y="280" width="310" height="250" as="geometry" />
        </mxCell>
        <mxCell id="ZOca4I44WI3_u_HMunxy-17" value="Input" style="rounded=0;whiteSpace=wrap;html=1;" vertex="1" parent="1">
          <mxGeometry x="25" y="290" width="225" height="40" as="geometry" />
        </mxCell>
        <mxCell id="ZOca4I44WI3_u_HMunxy-18" value="POST" style="rounded=0;whiteSpace=wrap;html=1;fillColor=#d5e8d4;strokeColor=#82b366;" vertex="1" parent="1">
          <mxGeometry x="260" y="290" width="40" height="40" as="geometry" />
        </mxCell>
        <mxCell id="ZOca4I44WI3_u_HMunxy-20" value="" style="rounded=0;whiteSpace=wrap;html=1;fillColor=#dae8fc;strokeColor=#6c8ebf;" vertex="1" parent="1">
          <mxGeometry x="25" y="340" width="275" height="180" as="geometry" />
        </mxCell>
        <mxCell id="ZOca4I44WI3_u_HMunxy-21" value="" style="rounded=0;whiteSpace=wrap;html=1;" vertex="1" parent="1">
          <mxGeometry x="40" y="350" width="120" height="20" as="geometry" />
        </mxCell>
        <mxCell id="ZOca4I44WI3_u_HMunxy-22" value="" style="rounded=0;whiteSpace=wrap;html=1;" vertex="1" parent="1">
          <mxGeometry x="52.5" y="380" width="120" height="10" as="geometry" />
        </mxCell>
        <mxCell id="ZOca4I44WI3_u_HMunxy-23" value="" style="rounded=0;whiteSpace=wrap;html=1;" vertex="1" parent="1">
          <mxGeometry x="52.5" y="400" width="120" height="10" as="geometry" />
        </mxCell>
        <mxCell id="ZOca4I44WI3_u_HMunxy-24" value="" style="rounded=0;whiteSpace=wrap;html=1;" vertex="1" parent="1">
          <mxGeometry x="40" y="440" width="120" height="20" as="geometry" />
        </mxCell>
        <mxCell id="ZOca4I44WI3_u_HMunxy-25" value="" style="rounded=0;whiteSpace=wrap;html=1;" vertex="1" parent="1">
          <mxGeometry x="60" y="470" width="120" height="10" as="geometry" />
        </mxCell>
        <mxCell id="ZOca4I44WI3_u_HMunxy-26" value="" style="rounded=0;whiteSpace=wrap;html=1;" vertex="1" parent="1">
          <mxGeometry x="52.5" y="420" width="120" height="10" as="geometry" />
        </mxCell>
        <mxCell id="ZOca4I44WI3_u_HMunxy-27" value="Comment" style="rounded=0;whiteSpace=wrap;html=1;fillColor=#e1d5e7;strokeColor=#9673a6;" vertex="1" parent="1">
          <mxGeometry x="180" y="420" width="80" height="10" as="geometry" />
        </mxCell>
        <mxCell id="ZOca4I44WI3_u_HMunxy-28" value="" style="rounded=0;whiteSpace=wrap;html=1;" vertex="1" parent="1">
          <mxGeometry x="60" y="490" width="120" height="10" as="geometry" />
        </mxCell>
        <mxCell id="ZOca4I44WI3_u_HMunxy-29" value="Comment" style="rounded=0;whiteSpace=wrap;html=1;fillColor=#e1d5e7;strokeColor=#9673a6;" vertex="1" parent="1">
          <mxGeometry x="190" y="490" width="80" height="10" as="geometry" />
        </mxCell>
      </root>
    </mxGraphModel>
  </diagram>
</mxfile>
